<svg width="52" height="49" viewBox="0 0 52 49" fill="none" xmlns="http://www.w3.org/2000/svg">
<path d="M48.0143 39.8544C44.2771 45.3361 36.9198 48.1894 25.972 48.1894L25.9537 48.1894C25.9536 48.1894 25.9536 48.1894 25.9535 48.1894C15.0223 48.1862 7.68383 45.3321 3.9632 39.8516C0.828778 35.2343 0.412165 29.3193 0.412166 24.6015C0.412166 19.8839 0.82878 13.9692 3.96321 9.35207C7.68384 3.87174 15.0223 1.0175 25.9539 1.01373C25.9539 1.01373 25.954 1.01373 25.954 1.01373L25.9754 1.01373C36.9229 1.01354 44.2771 3.86624 48.014 9.34802L48.3546 9.11586L48.014 9.34803C51.1687 13.9754 51.5878 19.8876 51.5878 24.6015C51.5878 29.3153 51.1687 35.2273 48.0143 39.8544Z" fill="#202024" stroke="url(#paint0_linear_4154_3536)" stroke-width="0.824324"/>
<path d="M12.8605 24.8656C12.7851 12.3881 29.5624 6.87851 36.7975 18.4723L31.2458 21.6724C27.8944 16.1507 19.5731 18.1251 19.2744 24.8655C19.3641 31.0777 27.5429 33.9634 31.2462 28.0583L36.7979 31.2582C30.4217 42.2844 13.1821 38.3174 12.8605 24.8656Z" fill="#A075DA"/>
<path d="M34.0211 21.243H35.0784L34.3559 28.1942H33.2787L34.0211 21.243Z" fill="#A075DA"/>
<path d="M36.2857 21.243H37.343L36.6206 28.1942H35.5434L36.2857 21.243Z" fill="#A075DA"/>
<path d="M38.1236 22.8934H32.8371V23.9106H38.1236V22.8934Z" fill="#A075DA"/>
<path d="M37.8276 25.371H32.541V26.3881H37.8276V25.371Z" fill="#A075DA"/>
<defs>
<linearGradient id="paint0_linear_4154_3536" x1="26" y1="0.601565" x2="26" y2="48.6016" gradientUnits="userSpaceOnUse">
<stop stop-color="#323238"/>
<stop offset="1" stop-color="#323238" stop-opacity="0.3"/>
</linearGradient>
</defs>
</svg>
