<svg width="157" height="21" viewBox="0 0 157 21" fill="none" xmlns="http://www.w3.org/2000/svg">
<path d="M28.0683 20.4165C23.8941 20.4165 20.4988 17.0213 20.4988 12.8471V8.0542C20.4988 3.88008 23.8941 0.484787 28.0683 0.484787H35.0141C39.1883 0.484787 42.5836 3.88008 42.5836 8.0542V12.8471C42.5836 17.0213 39.1883 20.4165 35.0141 20.4165H28.0683ZM28.0683 4.8495C26.2988 4.8495 24.8612 6.28713 24.8612 8.05654V12.8495C24.8612 14.6189 26.2988 16.0565 28.0683 16.0565H35.0141C36.7835 16.0565 38.2212 14.6189 38.2212 12.8495V8.05654C38.2212 6.28713 36.7812 4.8495 35.0141 4.8495H28.0683Z" fill="white"/>
<path d="M52.087 20.4165C47.9129 20.4165 44.5176 17.0213 44.5176 12.8471V0.484787H48.88V12.8471C48.88 14.6166 50.32 16.0542 52.087 16.0542H58.6918C60.4612 16.0542 61.8988 14.6166 61.8988 12.8471V0.484787H66.2612V12.8471C66.2612 17.0213 62.8659 20.4165 58.6918 20.4165H52.087Z" fill="white"/>
<path d="M83.8682 20.4166L80.0517 12.2307C79.5694 11.1954 79.9505 9.98125 80.9411 9.40949C81.1576 9.28478 81.3741 9.16244 81.5905 9.04009C81.8447 8.89656 82.0964 8.75302 82.3482 8.60714C82.64 8.43773 82.9294 8.26597 83.2141 8.08479L83.2564 8.0589C83.3788 7.98125 83.5811 7.8542 83.6752 7.76009L83.6894 7.7389L83.7082 7.72243C83.7741 7.65184 83.8329 7.57655 83.887 7.4989C84.2188 6.99772 84.2611 6.38125 84.0094 5.83772C83.7247 5.22596 83.1317 4.84479 82.4611 4.84479H72.8352C72.6941 4.84714 72.5788 4.96479 72.5788 5.10832V20.4118H68.2164V4.61185C68.2164 2.3342 70.0682 0.482433 72.3458 0.482433H82.4611C84.3788 0.482433 86.2047 1.40949 87.3482 2.96008C88.5788 4.63302 88.8705 6.78832 88.1223 8.72714C87.6141 10.0495 86.6635 11.1554 85.4494 11.8424C85.407 11.8683 85.3552 11.8965 85.3011 11.9271C85.1411 12.0142 84.96 12.1154 84.9153 12.2189C84.9082 12.2354 84.8917 12.2754 84.9341 12.3671L88.6847 20.4118H83.8682V20.4166Z" fill="white"/>
<path d="M90.8 20.4165L90.7953 17.5765V4.64713C90.7953 2.35302 92.6612 0.487135 94.9553 0.487135H96.0023C97.3388 0.531841 98.6211 1.10831 99.5317 2.06831C99.8282 2.38125 100.085 2.73184 100.292 3.10831C100.346 3.20479 100.395 3.30361 100.442 3.40479L103.948 10.9201L106.155 15.6518C106.266 15.8918 106.499 16.0448 106.762 16.0518H107.186C107.351 16.0518 107.482 15.9177 107.482 15.7554V13.4754L107.478 13.0918V0.484787H111.84L111.845 3.32243V16.2518C111.845 18.546 109.979 20.4118 107.685 20.4118H106.638C105.301 20.3671 104.021 19.7907 103.108 18.8307C102.809 18.5154 102.553 18.1648 102.348 17.7883C102.296 17.6918 102.245 17.593 102.2 17.4942L98.6823 9.95303L96.487 5.24479C96.3764 5.00479 96.1435 4.85184 95.88 4.84479H95.4564C95.2917 4.84479 95.16 4.97891 95.16 5.14126V7.42126L95.1647 7.80479V20.4118H90.8023L90.8 20.4165Z" fill="white"/>
<path d="M121.358 20.4165C117.184 20.4165 113.788 17.0213 113.788 12.8471V8.0542C113.788 3.88008 117.184 0.484787 121.358 0.484787H133.708V4.84714H121.358C119.588 4.84714 118.151 6.28479 118.151 8.0542V12.8471C118.151 14.6166 119.588 16.0542 121.358 16.0542H133.708V20.4165H121.358ZM121.445 12.633V8.27067H133.708V12.633H121.445Z" fill="white"/>
<path d="M143.984 20.4166V12.3365C142.842 12.0165 141.781 11.4354 140.901 10.6518C140.092 9.93185 139.445 9.0589 138.979 8.05654L135.449 0.487137H140.266L142.937 6.21185C143.537 7.50126 144.746 8.27067 146.167 8.27067C147.588 8.27067 148.795 7.50126 149.398 6.21185L152.068 0.487137H156.885L153.355 8.05654C152.887 9.0589 152.24 9.93185 151.433 10.6518C150.553 11.4377 149.489 12.0165 148.348 12.3365V20.4166H143.986H143.984Z" fill="white"/>
<path d="M14.1906 0.487137V12.8495C14.1906 14.6189 12.7506 16.0565 10.9835 16.0565H7.56941C5.8 16.0565 4.36235 14.6189 4.36235 12.8495H0C0 17.0213 3.39294 20.4166 7.5647 20.4189H7.56941H10.9882C15.16 20.4189 18.5529 17.0213 18.5529 12.8495V0.487137H14.1906Z" fill="white"/>
</svg>
