<svg width="105" height="29" viewBox="0 0 105 29" fill="none" xmlns="http://www.w3.org/2000/svg">
<path fill-rule="evenodd" clip-rule="evenodd" d="M14.16 9.87842V14.6804L7.3476 17.2676L14.16 19.8632V24.6736L0.871198 19.74H0.840393V14.8036H0.871198L14.16 9.87842Z" fill="white"/>
<path fill-rule="evenodd" clip-rule="evenodd" d="M91.1096 24.6735V19.8715L97.9136 17.2872L91.1096 14.6999V9.89795L104.379 14.8344H104.407V19.7708H104.379L91.1096 24.6847V24.6735Z" fill="white"/>
<path fill-rule="evenodd" clip-rule="evenodd" d="M85.406 3.08545L77.5968 28.1314H82.2252L90.0344 3.08545H85.406Z" fill="white"/>
<path fill-rule="evenodd" clip-rule="evenodd" d="M38.0972 14.5155C38.1784 12.5555 37.4812 10.6487 36.168 9.20107H36.1792C34.8548 7.81507 32.9984 7.06746 31.0888 7.14866C29.0476 7.05626 27.0456 7.81507 25.5784 9.25147V7.67226H20.95V25.1863H25.5784V17.4303C25.5784 13.4095 27.026 11.3963 29.9296 11.3963C30.9152 11.3543 31.8588 11.7659 32.5056 12.5135C33.1832 13.3535 33.522 14.4231 33.4688 15.4983V25.1835H38.0972V14.5127V14.5155Z" fill="white"/>
<path d="M47.6284 0.131836H43V25.1778H47.6284V0.131836Z" fill="white"/>
<path fill-rule="evenodd" clip-rule="evenodd" d="M68.4464 25.1776H72.3048L78.798 7.63281H73.8532L70.1992 18.158L66.4444 7.63281H62.8324L59.0776 18.1272L55.4264 7.63281H50.4788L56.9748 25.1776H60.8332L64.6608 14.8652L68.4464 25.1776Z" fill="white"/>
</svg>
